# xmcd CD database file
#
# Track frame offsets:
#	150
#	14950
#	29925
#	43593
#	57740
#	71547
#	84557
#	97988
#	112612
#	126581
#	140921
#	153125
#	168455
#	181726
#	197327
#	209776
#	224145
#	238548
#	251980
#	266815
#	282055
#	294984
#	309937
#
# Disc length: 4324 seconds
#
# Revision: 0
# Processed by: cddbd v1.5.1PL0 Copyright (c) Steve Scherf et al.
# Submitted via: CDex 1.51
#
DISCID=6a10e217
DTITLE=Billie Holiday - The Essential Billie Holiday
DYEAR=2005
DGENRE=Jazz
TTITLE0=Strange Fruit
TTITLE1=Fine And Mellow
TTITLE2=Night and Day
TTITLE3=The Man I Love
TTITLE4=All Of Me
TTITLE5=Am I Blue
TTITLE6=I Cover The Waterfront
TTITLE7=Gloomy Sunday
TTITLE8=My Old Flame
TTITLE9=I'll Get By
TTITLE10=He's Funny That Way
TTITLE11=Lover Man
TTITLE12=That Ole Devil Called Love
TTITLE13=Don't Explain
TTITLE14=You'd Better Go knpw
TTITLE15=Good Morning Heartache
TTITLE16=Solitude
TTITLE17=I Loves You Porgy
TTITLE18=Baby Get Lost
TTITLE19=Ain't Nobodies Business If I Do
TTITLE20=Them There Eyes
TTITLE21=Now Or Never
TTITLE22=God Bless The Child
EXTD=YEAR: 2005
EXTT0=
EXTT1=
EXTT2=
EXTT3=
EXTT4=
EXTT5=
EXTT6=
EXTT7=
EXTT8=
EXTT9=
EXTT10=
EXTT11=
EXTT12=
EXTT13=
EXTT14=
EXTT15=
EXTT16=
EXTT17=
EXTT18=
EXTT19=
EXTT20=
EXTT21=
EXTT22=
PLAYORDER=
